<svg xmlns="http://www.w3.org/2000/svg" viewBox="0 0 120 120">
  <defs>
    <filter id="rough" x="-20%" y="-20%" width="140%" height="140%">
      <feTurbulence type="fractalNoise" baseFrequency="0.9" numOctaves="1" seed="7" result="noise"/>
      <feDisplacementMap in="SourceGraphic" in2="noise" scale="2.2"/>
    </filter>
  </defs>
  <g filter="url(#rough)">
    <rect x="6" y="6" width="108" height="108" rx="30" fill="#f1caba" stroke="#1c1b1a" stroke-width="5.5"/>
    <g transform="translate(19 20) scale(0.63)">
      <path d="M40 112 C36 94, 30 86, 25 68 C23 60, 31 56, 35 63 L42 78 C39 58, 37 45, 39 31 C40 23, 48 23, 49 31 L52 55 C52 38, 52 27, 54 17 C55 9, 63 9, 64 17 L65 52 C66 36, 67 27, 69 19 C71 11, 78 12, 78 20 L78 56 C79 46, 81 39, 84 33 C87 26, 93 29, 92 36 C90 52, 88 70, 83 86 C79 100, 72 107, 68 112 Z"
            fill="#faf5ec" stroke="#1c1b1a" stroke-width="7.5" stroke-linejoin="round"/>
      <path d="M100 38 C108 48, 108 62, 100 72" fill="none" stroke="#1c1b1a" stroke-width="7" stroke-linecap="round"/>
      <path d="M108 30 C119 44, 119 66, 108 80" fill="none" stroke="#1c1b1a" stroke-width="7" stroke-linecap="round"/>
    </g>
  </g>
</svg>
